<svg id="a" xmlns="http://www.w3.org/2000/svg" viewBox="0 0 348.73 160.1"><desc>A.K.I.</desc><path d="M76.8,22.1v119.4H53.4V93.6H34.3v47.9H10.9V39.5c0-0.5,0.2-1.4,0.6-1.9c2.1-1.8,13.1-12.9,14.8-14.8  c0.3-0.2,0.8-0.6,2.4-0.6H76.8z M53.4,44.1H34.3v25.6h19.1V44.1z"></path><path d="M115,121.2v20.4h-22v-20.4H115z"></path><path d="M197,22.1l-16.7,57.3l16.7,62.1h-23.4l-12.7-47.9h-6.2v47.9h-23.4V22.1h23.4v47.8h5.1l13.9-47.8L197,22.1L197,22.1z"></path><path d="M233,121.2v20.4h-22v-20.4H233z"></path><path d="M249.3,22.1h23.6v119.4h-23.6V22.1z"></path><path d="M311,121.2v20.4h-22v-20.4H311z"></path></svg>