<svg id="a" xmlns="http://www.w3.org/2000/svg" viewBox="0 0 348.73 160.1"><path d="m47.86,59.54v-15.61h-19.27v75.48h19.27v-15.29h23.41v19.43c0,1.27-.32,2.07-.8,2.55-2.87,3.03-12.9,12.9-13.69,13.69-1.43,1.75-.96,1.75-3.5,1.75h-30.89c-1.59,0-1.27-.32-2.71-1.75-.8-.8-11.47-11.78-14.01-14.17-.16-.32-.48-.8-.48-1.27V39.47c0-.96.32-1.43.8-1.91,2.39-2.87,12.74-13.06,13.7-14.01,1.43-1.75.96-1.43,3.5-1.43h48.09v37.42h-23.41Z"></path><path d="m147.86,22.12v119.43h-23.41v-47.93h-19.11v47.93h-23.41V39.47c0-.48.16-1.43.64-1.91,2.07-1.75,13.06-12.9,14.81-14.81.32-.16.8-.64,2.39-.64h48.09Zm-23.41,21.98h-19.11v25.64h19.11v-25.64Z"></path><path d="m234.64,22.12v119.43h-21.97v-74.05l-16.24,43.63-15.76-43.63v74.05h-21.98V22.12h20.7l17.04,43.31,17.52-43.31h20.7Z"></path><path d="m321.27,22.12v119.43h-21.98v-74.05l-16.24,43.63-15.76-43.63v74.05h-21.98V22.12h20.7l17.04,43.31,17.52-43.31h20.7Z"></path><path d="m395.63,22.12v37.42c0,.48-.48,1.43-.96,2.87-.16.48-11.15,24.84-20.38,44.75v34.4h-23.41v-34.4c-9.08-19.91-20.06-44.27-20.22-44.75-.8-1.43-.96-2.39-.96-2.87V22.12h23.41v37.42l9.55,22.13,9.55-22.13V22.12h23.41Z"></path></svg>