<svg id="a" xmlns="http://www.w3.org/2000/svg" viewBox="0 0 348.73 160.1"><path d="M7.18,141.55V22.12H54.79c1.59,0,1.59,.16,2.87,.96,.96,.8,13.54,13.54,14.49,14.81,.8,.96,.96,1.12,.96,3.03V124.03c0,.96-.48,1.75-.48,1.75l-14.17,14.49s-1.27,1.27-2.71,1.27H7.18Zm23.41-22.29h19.11V44.09H30.59V119.25Z"></path><path d="M147.47,22.12v21.98h-40.13v25.64h31.69v23.89h-31.69v25.64h40.13v22.29h-63.54V22.12h63.54Z"></path><path d="M221.83,22.12v21.98h-40.13v25.64h31.69v23.89h-31.69v25.64h40.13v22.29h-63.54V22.12h63.54Z"></path><path d="M301.61,104.12v15.29h19.11V22.12h23.41V123.39c0,1.11-.48,1.91-.48,1.91l-15.13,15.29s-.96,.96-2.39,.96h-29.62c-1.59,0-2.87-1.12-2.87-1.12,0,0-13.38-13.85-14.49-14.81-.64-.8-.96-1.27-.96-2.71v-18.79h23.41Z"></path><path d="M420.88,22.12v119.43h-23.41v-47.93h-19.11v47.93h-23.41V39.47c0-.48,.16-1.43,.64-1.91,2.07-1.75,13.06-12.9,14.81-14.81,.32-.16,.8-.64,2.39-.64h48.09Zm-23.41,21.98h-19.11v25.64h19.11v-25.64Z"></path><path d="M495.4,22.12V59.54c0,.48-.48,1.43-.96,2.87-.16,.48-11.15,24.84-20.38,44.75v34.4h-23.41v-34.4c-9.08-19.91-20.06-44.27-20.22-44.75-.8-1.43-.96-2.39-.96-2.87V22.12h23.41V59.54l9.55,22.13,9.55-22.13V22.12h23.41Z"></path></svg>