<svg id="a" xmlns="http://www.w3.org/2000/svg" viewBox="0 0 348.73 160.1"><path d="M70.11,22.12V57.47h-23.41v-13.38H27.59V119.25h19.11v-25.64h-6.85v-23.89h30.26v53.66c0,1.12-.48,1.91-.48,1.91l-15.13,15.29s-.8,.96-2.23,.96H22.49c-1.59,0-2.87-1.27-2.87-1.27,0,0-13.38-13.7-14.49-14.81-.8-.64-.96-1.12-.96-2.71V39.31c0-.96,.64-1.75,.64-1.75l14.33-14.33s.96-1.12,2.71-1.12h48.25Z"></path><path d="M104.34,22.12V119.25h19.11V22.12h23.41V123.39c0,1.12-.48,1.91-.48,1.91l-15.13,15.29s-.8,.96-2.07,.96h-29.94c-1.43,0-2.87-1.27-2.87-1.27,0,0-13.38-13.7-14.49-14.81-.8-.64-.96-1.12-.96-2.71V22.12h23.41Z"></path><path d="M157.69,22.12h23.57v119.43h-23.57V22.12Z"></path><path d="M215.49,22.12V119.57h31.37v21.97h-54.78V22.12h23.41Z"></path><path d="M318.99,22.12v21.98h-40.13v25.64h31.69v23.89h-31.69v25.64h40.13v22.29h-63.54V22.12h63.54Z"></path></svg>