<svg id="a" xmlns="http://www.w3.org/2000/svg" viewBox="0 0 348.73 160.1"><path d="M25.36,104.13v15.29h19.11V22.12h23.41V123.39c0,1.12-.48,1.91-.48,1.91l-15.13,15.29s-.96,.96-2.39,.96H20.26c-1.59,0-2.87-1.11-2.87-1.11,0,0-13.38-13.85-14.49-14.81-.64-.8-.96-1.27-.96-2.71v-18.79H25.36Z"></path><path d="M144.63,22.12v119.43h-23.41v-47.93h-19.11v47.93h-23.41V39.47c0-.48,.16-1.43,.64-1.91,2.07-1.75,13.06-12.9,14.81-14.81,.32-.16,.8-.64,2.39-.64h48.09Zm-23.41,21.98h-19.11v25.64h19.11v-25.64Z"></path><path d="M231.41,22.12v119.43h-21.98V67.5l-16.24,43.63-15.76-43.63v74.05h-21.98V22.12h20.7l17.04,43.31,17.52-43.31h20.7Z"></path><path d="M242.08,22.12h23.57v119.43h-23.57V22.12Z"></path><path d="M340.01,22.12v21.98h-40.13v25.64h31.69v23.89h-31.69v25.64h40.13v22.29h-63.54V22.12h63.54Z"></path></svg>