<svg id="a" xmlns="http://www.w3.org/2000/svg" viewBox="0 0 348.73 160.1"><path d="M28.36,104.12v15.29h19.11V22.12h23.41V123.39c0,1.11-.48,1.91-.48,1.91l-15.13,15.29s-.96,.96-2.39,.96H23.26c-1.59,0-2.87-1.12-2.87-1.12,0,0-13.38-13.85-14.49-14.81-.64-.8-.96-1.27-.96-2.71v-18.79H28.36Z"></path><path d="M105.11,22.12V119.25h19.11V22.12h23.41V123.39c0,1.11-.48,1.91-.48,1.91l-15.13,15.29s-.8,.96-2.07,.96h-29.94c-1.43,0-2.87-1.27-2.87-1.27,0,0-13.38-13.69-14.49-14.81-.8-.64-.96-1.11-.96-2.71V22.12h23.41Z"></path><path d="M216.9,92.66l7.33,48.89h-23.41l-7.17-47.93h-11.78v47.93h-23.41V21.96h47.45c1.59,0,1.91,.32,3.03,.96,.96,.8,13.69,13.54,14.65,14.81,.64,.96,.96,1.27,.96,3.03v41.56c0,1.59-.48,3.34-.96,3.82-2.07,2.39-5.1,4.78-6.69,6.53Zm-35.03-22.93h18.95v-25.8h-18.95v25.8Z"></path><path d="M235.21,22.12h23.57v119.43h-23.57V22.12Z"></path></svg>