<svg id="a" xmlns="http://www.w3.org/2000/svg" viewBox="0 0 348.73 160.1"><path d="M70.95,22.12l-16.72,57.33,16.72,62.1h-23.41l-12.74-47.93h-6.21v47.93H5.18V22.12H28.59v47.77h5.1l13.85-47.77h23.41Z"></path><path d="M79.55,22.12h23.57v119.43h-23.57V22.12Z"></path><path d="M189.9,22.12v119.43h-21.98V67.5l-16.24,43.63-15.76-43.63v74.05h-21.98V22.12h20.7l17.04,43.31,17.52-43.31h20.7Z"></path><path d="M265.69,75.14c-.48,.48-7.33,7.17-7.33,7.17,0,0,7.01,7.17,7.33,7.32,.16,.32,.64,.8,.64,2.55v31.69c0,.48,0,1.59-.48,1.91-2.07,2.07-13.06,13.06-14.97,14.97,0,0-.8,.8-2.23,.8h-48.09V39.47c0-.48,.16-1.43,.48-2.07,2.07-1.75,13.06-12.9,14.97-14.65,0-.32,.8-.8,2.23-.8h48.09v51.12c0,.96-.16,1.59-.64,2.07Zm-41.72-5.41h18.95v-25.8h-18.95v25.8Zm0,49.52h18.95v-25.64h-18.95v25.64Z"></path><path d="M340.85,22.12v21.98h-40.13v25.64h31.69v23.89h-31.69v25.64h40.13v22.29h-63.54V22.12h63.54Z"></path><path d="M410.12,92.66l7.33,48.89h-23.41l-7.17-47.93h-11.78v47.93h-23.41V21.96h47.45c1.59,0,1.91,.32,3.03,.96,.96,.8,13.69,13.54,14.65,14.81,.64,.96,.96,1.27,.96,3.03v41.56c0,1.59-.48,3.34-.96,3.82-2.07,2.39-5.1,4.78-6.69,6.53Zm-35.03-22.93h18.95v-25.8h-18.95v25.8Z"></path><path d="M451.84,22.12V119.57h31.37v21.98h-54.78V22.12h23.41Z"></path><path d="M552.32,22.12V59.54c0,.48-.48,1.43-.96,2.87-.16,.48-11.15,24.84-20.38,44.75v34.4h-23.41v-34.4c-9.08-19.91-20.07-44.27-20.22-44.75-.8-1.43-.96-2.39-.96-2.87V22.12h23.41V59.54l9.55,22.13,9.55-22.13V22.12h23.41Z"></path></svg>