<svg id="a" xmlns="http://www.w3.org/2000/svg"  height="150px" viewBox="0 0 348.73 160.1"><path d="M27.59,22.11V119.57h31.37v21.98H4.18V22.11H27.59Z"></path><path d="M90.97,22.11V119.25h19.11V22.11h23.41V123.39c0,1.12-.48,1.91-.48,1.91l-15.13,15.29s-.8,.96-2.07,.96h-29.94c-1.43,0-2.87-1.27-2.87-1.27,0,0-13.38-13.69-14.49-14.81-.8-.64-.96-1.12-.96-2.71V22.11h23.41Z"></path><path d="M210.08,22.11l-16.72,57.33,16.72,62.1h-23.41l-12.74-47.93h-6.21v47.93h-23.41V22.11h23.41v47.77h5.1l13.85-47.77h23.41Z"></path><path d="M282.21,22.11v21.98h-40.13v25.64h31.69v23.89h-31.69v25.64h40.13v22.29h-63.54V22.11h63.54Z"></path></svg>