<svg id="a" xmlns="http://www.w3.org/2000/svg"viewBox="0 0 348.73 160.1"><path d="M81.14,22.12v119.43h-21.98V67.5l-16.24,43.63-15.76-43.63v74.05H5.18V22.12H25.88l17.04,43.31L60.44,22.12h20.7Z"></path><path d="M157.73,22.12v119.43h-23.41v-47.93h-19.11v47.93h-23.41V39.47c0-.48,.16-1.43,.64-1.91,2.07-1.75,13.06-12.9,14.81-14.81,.32-.16,.8-.64,2.39-.64h48.09Zm-23.41,21.98h-19.11v25.64h19.11v-25.64Z"></path><path d="M227,92.66l7.33,48.89h-23.41l-7.17-47.93h-11.78v47.93h-23.41V21.96h47.45c1.59,0,1.91,.32,3.03,.96,.96,.8,13.69,13.54,14.65,14.81,.64,.96,.96,1.27,.96,3.03v41.56c0,1.59-.48,3.34-.96,3.82-2.07,2.39-5.1,4.78-6.69,6.53Zm-35.03-22.93h18.95v-25.8h-18.95v25.8Z"></path><path d="M245.31,22.12h23.57v119.43h-23.57V22.12Z"></path><path d="M297.7,22.12h48.09V59.54h-23.41v-15.61h-19.27v25.8h25.96c.8,0,1.59,.64,1.59,.64l14.17,14.49s.96,.96,.96,2.39v36.31c0,.96-.32,2.07-.8,2.55-2.87,3.03-12.58,12.9-13.38,13.69-1.75,1.75-1.27,1.75-3.82,1.75h-30.89c-1.27,0-1.27-.32-2.71-1.75-.48-.8-11.46-11.78-14.01-14.17-.16-.32-.48-.8-.48-1.27v-20.22h23.41v15.29h19.27v-25.8h-25.96c-.64,0-1.11-.48-1.11-.48l-15.13-15.13s-.48-.32-.48-1.43V39.47c0-.96,.32-1.43,.8-1.91,2.71-2.87,12.9-13.06,13.69-14.01,1.59-1.75,1.12-1.43,3.5-1.43Z"></path><path d="M422.38,22.12v119.43h-23.41v-47.93h-19.11v47.93h-23.41V39.47c0-.48,.16-1.43,.64-1.91,2.07-1.75,13.06-12.9,14.81-14.81,.32-.16,.8-.64,2.39-.64h48.09Zm-23.41,21.98h-19.11v25.64h19.11v-25.64Z"></path></svg>