<svg id="a" xmlns="http://www.w3.org/2000/svg" viewBox="0 0 348.73 160.1"><desc>RASHID</desc><path d="M70.74,92.34l7.33,48.89h-23.41l-7.17-47.93h-11.78v47.93H12.3V21.64H59.75c1.59,0,1.91,.32,3.03,.96,.96,.8,13.7,13.54,14.65,14.81,.64,.96,.96,1.27,.96,3.03v41.56c0,1.59-.48,3.34-.96,3.82-2.07,2.39-5.1,4.78-6.69,6.53Zm-35.03-22.93h18.95v-25.8h-18.95v25.8Z"></path><path d="M154.97,21.8v119.43h-23.41v-47.93h-19.11v47.93h-23.41V39.15c0-.48,.16-1.43,.64-1.91,2.07-1.75,13.06-12.9,14.81-14.81,.32-.16,.8-.64,2.39-.64h48.09Zm-23.41,21.98h-19.11v25.64h19.11v-25.64Z"></path><path d="M183.79,21.8h48.09V59.22h-23.41v-15.61h-19.27v25.8h25.96c.8,0,1.59,.64,1.59,.64l14.17,14.49s.96,.96,.96,2.39v36.31c0,.96-.32,2.07-.8,2.55-2.87,3.03-12.58,12.9-13.38,13.69-1.75,1.75-1.27,1.75-3.82,1.75h-30.89c-1.27,0-1.27-.32-2.71-1.75-.48-.8-11.47-11.78-14.01-14.17-.16-.32-.48-.8-.48-1.27v-20.22h23.41v15.29h19.27v-25.8h-25.96c-.64,0-1.11-.48-1.11-.48l-15.13-15.13s-.48-.32-.48-1.43V39.15c0-.96,.32-1.43,.8-1.91,2.71-2.87,12.9-13.06,13.7-14.01,1.59-1.75,1.11-1.43,3.5-1.43Z"></path><path d="M283.16,21.8h23.41v119.43h-23.41v-47.93h-17.2v47.93h-23.41V21.8h23.41v47.61h17.2V21.8Z"></path><path d="M317.39,21.8h23.57v119.43h-23.57V21.8Z"></path><path d="M351.79,141.23V21.8h47.61c1.59,0,1.59,.16,2.87,.96,.96,.8,13.54,13.54,14.49,14.81,.8,.96,.96,1.12,.96,3.03V123.71c0,.96-.48,1.75-.48,1.75l-14.17,14.49s-1.27,1.27-2.71,1.27h-48.57Zm23.41-22.29h19.11V43.77h-19.11V118.93Z"></path></svg>