<svg id="a" xmlns="http://www.w3.org/2000/svg" height="150px" viewBox="0 0 348.73 160.1"> <path fill="#FFFFFF" d="M62.62,92.66l7.33,48.89h-23.41l-7.17-47.93h-11.78v47.93H4.18V21.96H51.64c1.59,0,1.91,.32,3.03,.96,.96,.8,13.69,13.54,14.65,14.81,.64,.96,.96,1.27,.96,3.03v41.56c0,1.59-.48,3.34-.96,3.82-2.07,2.39-5.1,4.78-6.69,6.53Zm-35.03-22.93h18.95v-25.8H27.59v25.8Z"></path> <path fill="#FFFFFF" d="M144.63,22.12V59.54c0,.48-.48,1.43-.96,2.87-.16,.48-11.15,24.84-20.38,44.75v34.4h-23.41v-34.4c-9.08-19.91-20.06-44.27-20.22-44.75-.8-1.43-.96-2.39-.96-2.87V22.12h23.41V59.54l9.55,22.13,9.55-22.13V22.12h23.41Z"></path> <path fill="#FFFFFF" d="M176.64,22.12V119.25h19.11V22.12h23.41V123.39c0,1.11-.48,1.91-.48,1.91l-15.13,15.29s-.8,.96-2.07,.96h-29.94c-1.43,0-2.87-1.27-2.87-1.27,0,0-13.38-13.69-14.49-14.81-.8-.64-.96-1.11-.96-2.71V22.12h23.41Z"></path> </svg>