<svg id="a" xmlns="http://www.w3.org/2000/svg" viewBox="0 0 348.73 160.1"><path d="M70.31,75.14c-.48,.48-7.33,7.17-7.33,7.17,0,0,7.01,7.17,7.33,7.32,.16,.32,.64,.8,.64,2.55v31.69c0,.48,0,1.59-.48,1.91-2.07,2.07-13.06,13.06-14.97,14.97,0,0-.8,.8-2.23,.8H5.18V39.47c0-.48,.16-1.43,.48-2.07,2.07-1.75,13.06-12.9,14.97-14.65,0-.32,.8-.8,2.23-.8h48.09v51.12c0,.96-.16,1.59-.64,2.07Zm-41.72-5.41h18.95v-25.8H28.59v25.8Zm0,49.52h18.95v-25.64H28.59v25.64Z"></path><path d="M105.34,22.12V119.57h31.37v21.98h-54.78V22.12h23.41Z"></path><path d="M211.24,22.12v119.43h-23.41v-47.93h-19.11v47.93h-23.41V39.47c0-.48,.16-1.43,.64-1.91,2.07-1.75,13.06-12.9,14.81-14.81,.32-.16,.8-.64,2.39-.64h48.09Zm-23.41,21.98h-19.11v25.64h19.11v-25.64Z"></path><path d="M289.1,22.12v119.43h-21.97l-23.09-71.82v71.82h-21.98V22.12h21.98l23.09,71.5V22.12h21.97Z"></path><path d="M365.54,22.12l-16.72,57.33,16.72,62.1h-23.41l-12.74-47.93h-6.21v47.93h-23.41V22.12h23.41v47.77h5.1l13.85-47.77h23.41Z"></path><path d="M440.06,22.12v119.43h-23.41v-47.93h-19.11v47.93h-23.41V39.47c0-.48,.16-1.43,.64-1.91,2.07-1.75,13.06-12.9,14.81-14.81,.32-.16,.8-.64,2.39-.64h48.09Zm-23.41,21.98h-19.11v25.64h19.11v-25.64Z"></path></svg>