<svg id="a" xmlns="http://www.w3.org/2000/svg" viewBox="0 0 348.73 160.1"><path d="M46.86,59.54v-15.61H27.59V119.41h19.27v-15.29h23.41v19.43c0,1.27-.32,2.07-.8,2.55-2.87,3.03-12.9,12.9-13.69,13.7-1.43,1.75-.96,1.75-3.5,1.75H21.38c-1.59,0-1.27-.32-2.71-1.75-.8-.8-11.47-11.79-14.01-14.17-.16-.32-.48-.8-.48-1.27V39.47c0-.96,.32-1.43,.8-1.91,2.39-2.87,12.74-13.06,13.69-14.01,1.43-1.75,.96-1.43,3.5-1.43h48.09V59.54h-23.41Z"></path><path d="M121.54,22.11h23.41v119.43h-23.41v-47.93h-17.2v47.93h-23.41V22.11h23.41v47.61h17.2V22.11Z"></path><path d="M179.18,22.11V119.25h19.11V22.11h23.41V123.39c0,1.12-.48,1.91-.48,1.91l-15.13,15.29s-.8,.96-2.07,.96h-29.94c-1.43,0-2.87-1.27-2.87-1.27,0,0-13.38-13.69-14.49-14.81-.8-.64-.96-1.12-.96-2.71V22.11h23.41Z"></path><path d="M299.57,22.11v119.43h-21.98l-23.09-71.82v71.82h-21.98V22.11h21.98l23.09,71.5V22.11h21.98Z"></path><path d="M315.65,75.62h55.1v26.91h-55.1v-26.91Z"></path><path d="M410.39,22.11V119.57h31.37v21.98h-54.78V22.11h23.41Z"></path><path d="M450.36,22.11h23.57v119.43h-23.57V22.11Z"></path></svg>