<svg id="a" xmlns="http://www.w3.org/2000/svg" viewBox="0 0 348.73 160.1"><path d="M68.72,22.12v21.98H28.59v25.64h31.69v23.89H28.59v25.64h40.13v22.29H5.18V22.12h63.54Z"></path><path d="M97.38,121.16v20.38h-21.97v-20.38h21.97Z"></path><path d="M154.23,22.12h23.41v119.43h-23.41v-47.93h-17.2v47.93h-23.41V22.12h23.41v47.61h17.2V22.12Z"></path><path d="M254.39,22.12V123.39c0,1.11-.48,1.91-.48,1.91l-15.13,15.29s-.8,.96-2.07,.96h-29.94c-1.43,0-1.59-.32-2.87-1.27-.8-.8-13.38-13.38-14.49-14.81-.8-.64-.96-1.11-.96-2.71V39.31c0-.96,.64-1.75,.64-1.75l14.33-14.33s.96-1.11,2.71-1.11h48.25Zm-23.41,21.98h-19.11V119.25h19.11V44.09Z"></path><path d="M332.25,22.12v119.43h-21.97l-23.09-71.82v71.82h-21.98V22.12h21.98l23.09,71.5V22.12h21.97Z"></path><path d="M342.92,141.55V22.12h47.61c1.59,0,1.59,.16,2.87,.96,.96,.8,13.54,13.54,14.49,14.81,.8,.96,.96,1.12,.96,3.03V124.03c0,.96-.48,1.75-.48,1.75l-14.17,14.49s-1.27,1.27-2.71,1.27h-48.57Zm23.41-22.29h19.11V44.09h-19.11V119.25Z"></path><path d="M485.6,22.12v119.43h-23.41v-47.93h-19.11v47.93h-23.41V39.47c0-.48,.16-1.43,.64-1.91,2.07-1.75,13.06-12.9,14.81-14.81,.32-.16,.8-.64,2.39-.64h48.09Zm-23.41,21.98h-19.11v25.64h19.11v-25.64Z"></path></svg>