<svg id="a" xmlns="http://www.w3.org/2000/svg" viewBox="0 0 348.73 160.1"><path d="M26.36,104.12v15.29h19.11V22.12h23.41V123.39c0,1.11-.48,1.91-.48,1.91l-15.13,15.29s-.96,.96-2.39,.96H21.26c-1.59,0-2.87-1.12-2.87-1.12,0,0-13.38-13.85-14.49-14.81-.64-.8-.96-1.27-.96-2.71v-18.79H26.36Z"></path><path d="M145.79,21.96v54.14c0,1.59-.32,1.75-1.27,2.55-.64,.96-13.22,12.9-13.85,13.69-.79,.8-1.59,1.27-2.55,1.27h-25v47.93h-23.41V39.47c0-.48,.32-1.43,.48-2.07,2.07-1.75,13.54-12.9,15.29-14.65,.32-.32,.8-.8,2.39-.8h47.93Zm-23.41,21.97h-19.27v25.8h19.27v-25.8Z"></path></svg>