<svg id="a" xmlns="http://www.w3.org/2000/svg" viewBox="0 0 348.73 160.1"><path d="m63.15,44.09L28.43,119.57h34.71v21.98H5.18v-22.29L40.06,44.09H5.18v-21.98h57.96v21.98Z"></path><path d="m139.9,22.12v119.43h-23.41v-47.93h-19.11v47.93h-23.41V39.47c0-.48.16-1.43.64-1.91,2.07-1.75,13.06-12.9,14.81-14.81.32-.16.8-.64,2.39-.64h48.09Zm-23.41,21.98h-19.11v25.64h19.11v-25.64Z"></path><path d="m217.76,22.12v119.43h-21.98l-23.09-71.82v71.82h-21.97V22.12h21.97l23.09,71.5V22.12h21.98Z"></path><path d="m294.36,22.12v35.35h-23.41v-13.38h-19.11v75.16h19.11v-25.64h-6.85v-23.89h30.26v53.66c0,1.11-.48,1.91-.48,1.91l-15.13,15.29s-.8.96-2.23.96h-29.78c-1.59,0-2.87-1.27-2.87-1.27,0,0-13.38-13.69-14.49-14.81-.8-.64-.96-1.11-.96-2.71V39.31c0-.96.64-1.75.64-1.75l14.33-14.33s.96-1.11,2.71-1.11h48.25Z"></path><path d="m305.18,22.12h23.57v119.43h-23.57V22.12Z"></path><path d="m403.11,22.12v21.98h-40.13v25.64h31.69v23.89h-31.69v25.64h40.13v22.29h-63.54V22.12h63.54Z"></path><path d="m413.94,22.12h54.78v21.98h-31.37v25.64h31.37v23.89h-31.37v47.93h-23.41V22.12Z"></path></svg>